<?xml version="1.0" encoding="utf-8"?>
<svg xmlns="http://www.w3.org/2000/svg" xmlns:xlink="http://www.w3.org/1999/xlink" width="600" height="400" viewBox="0 0 2400 1600">
<defs>
  <clipPath id="clip370">
    <rect x="0" y="0" width="2400" height="1600"/>
  </clipPath>
</defs>
<path clip-path="url(#clip370)" d="M0 1600 L2400 1600 L2400 0 L0 0  Z" fill="#ffffff" fill-rule="evenodd" fill-opacity="1"/>
<defs>
  <clipPath id="clip371">
    <rect x="480" y="0" width="1681" height="1600"/>
  </clipPath>
</defs>
<defs>
  <clipPath id="clip372">
    <rect x="220" y="47" width="2134" height="1377"/>
  </clipPath>
</defs>
<path clip-path="url(#clip370)" d="M220.057 1423.18 L2352.76 1423.18 L2352.76 47.2441 L220.057 47.2441  Z" fill="#ffffff" fill-rule="evenodd" fill-opacity="1"/>
<polyline clip-path="url(#clip372)" style="stroke:#000000; stroke-linecap:round; stroke-linejoin:round; stroke-width:2; stroke-opacity:0.1; fill:none" points="278.714,1423.18 278.714,47.2441 "/>
<polyline clip-path="url(#clip372)" style="stroke:#000000; stroke-linecap:round; stroke-linejoin:round; stroke-width:2; stroke-opacity:0.1; fill:none" points="428.108,1423.18 428.108,47.2441 "/>
<polyline clip-path="url(#clip372)" style="stroke:#000000; stroke-linecap:round; stroke-linejoin:round; stroke-width:2; stroke-opacity:0.1; fill:none" points="557.52,1423.18 557.52,47.2441 "/>
<polyline clip-path="url(#clip372)" style="stroke:#000000; stroke-linecap:round; stroke-linejoin:round; stroke-width:2; stroke-opacity:0.1; fill:none" points="671.669,1423.18 671.669,47.2441 "/>
<polyline clip-path="url(#clip372)" style="stroke:#000000; stroke-linecap:round; stroke-linejoin:round; stroke-width:2; stroke-opacity:0.1; fill:none" points="773.779,1423.18 773.779,47.2441 "/>
<polyline clip-path="url(#clip372)" style="stroke:#000000; stroke-linecap:round; stroke-linejoin:round; stroke-width:2; stroke-opacity:0.1; fill:none" points="1445.54,1423.18 1445.54,47.2441 "/>
<polyline clip-path="url(#clip372)" style="stroke:#000000; stroke-linecap:round; stroke-linejoin:round; stroke-width:2; stroke-opacity:0.1; fill:none" points="1838.5,1423.18 1838.5,47.2441 "/>
<polyline clip-path="url(#clip372)" style="stroke:#000000; stroke-linecap:round; stroke-linejoin:round; stroke-width:2; stroke-opacity:0.1; fill:none" points="2117.3,1423.18 2117.3,47.2441 "/>
<polyline clip-path="url(#clip372)" style="stroke:#000000; stroke-linecap:round; stroke-linejoin:round; stroke-width:2; stroke-opacity:0.1; fill:none" points="2333.56,1423.18 2333.56,47.2441 "/>
<polyline clip-path="url(#clip370)" style="stroke:#000000; stroke-linecap:round; stroke-linejoin:round; stroke-width:4; stroke-opacity:1; fill:none" points="220.057,1423.18 2352.76,1423.18 "/>
<polyline clip-path="url(#clip370)" style="stroke:#000000; stroke-linecap:round; stroke-linejoin:round; stroke-width:4; stroke-opacity:1; fill:none" points="278.714,1423.18 278.714,1404.28 "/>
<polyline clip-path="url(#clip370)" style="stroke:#000000; stroke-linecap:round; stroke-linejoin:round; stroke-width:4; stroke-opacity:1; fill:none" points="428.108,1423.18 428.108,1404.28 "/>
<polyline clip-path="url(#clip370)" style="stroke:#000000; stroke-linecap:round; stroke-linejoin:round; stroke-width:4; stroke-opacity:1; fill:none" points="557.52,1423.18 557.52,1404.28 "/>
<polyline clip-path="url(#clip370)" style="stroke:#000000; stroke-linecap:round; stroke-linejoin:round; stroke-width:4; stroke-opacity:1; fill:none" points="671.669,1423.18 671.669,1404.28 "/>
<polyline clip-path="url(#clip370)" style="stroke:#000000; stroke-linecap:round; stroke-linejoin:round; stroke-width:4; stroke-opacity:1; fill:none" points="773.779,1423.18 773.779,1404.28 "/>
<polyline clip-path="url(#clip370)" style="stroke:#000000; stroke-linecap:round; stroke-linejoin:round; stroke-width:4; stroke-opacity:1; fill:none" points="1445.54,1423.18 1445.54,1404.28 "/>
<polyline clip-path="url(#clip370)" style="stroke:#000000; stroke-linecap:round; stroke-linejoin:round; stroke-width:4; stroke-opacity:1; fill:none" points="1838.5,1423.18 1838.5,1404.28 "/>
<polyline clip-path="url(#clip370)" style="stroke:#000000; stroke-linecap:round; stroke-linejoin:round; stroke-width:4; stroke-opacity:1; fill:none" points="2117.3,1423.18 2117.3,1404.28 "/>
<polyline clip-path="url(#clip370)" style="stroke:#000000; stroke-linecap:round; stroke-linejoin:round; stroke-width:4; stroke-opacity:1; fill:none" points="2333.56,1423.18 2333.56,1404.28 "/>
<path clip-path="url(#clip370)" d="M279.119 1466.44 Q275.971 1466.44 274.119 1468.59 Q272.29 1470.74 272.29 1474.49 Q272.29 1478.22 274.119 1480.39 Q275.971 1482.55 279.119 1482.55 Q282.267 1482.55 284.096 1480.39 Q285.947 1478.22 285.947 1474.49 Q285.947 1470.74 284.096 1468.59 Q282.267 1466.44 279.119 1466.44 M288.401 1451.78 L288.401 1456.04 Q286.642 1455.21 284.836 1454.77 Q283.054 1454.33 281.295 1454.33 Q276.665 1454.33 274.211 1457.45 Q271.781 1460.58 271.434 1466.9 Q272.799 1464.89 274.86 1463.82 Q276.92 1462.73 279.397 1462.73 Q284.605 1462.73 287.614 1465.9 Q290.647 1469.05 290.647 1474.49 Q290.647 1479.82 287.498 1483.03 Q284.35 1486.25 279.119 1486.25 Q273.123 1486.25 269.952 1481.67 Q266.781 1477.06 266.781 1468.33 Q266.781 1460.14 270.67 1455.28 Q274.559 1450.39 281.11 1450.39 Q282.869 1450.39 284.651 1450.74 Q286.457 1451.09 288.401 1451.78 Z" fill="#000000" fill-rule="nonzero" fill-opacity="1" /><path clip-path="url(#clip370)" d="M416.997 1451.02 L439.219 1451.02 L439.219 1453.01 L426.673 1485.58 L421.789 1485.58 L433.595 1454.96 L416.997 1454.96 L416.997 1451.02 Z" fill="#000000" fill-rule="nonzero" fill-opacity="1" /><path clip-path="url(#clip370)" d="M557.52 1469.17 Q554.187 1469.17 552.265 1470.95 Q550.367 1472.73 550.367 1475.86 Q550.367 1478.98 552.265 1480.77 Q554.187 1482.55 557.52 1482.55 Q560.853 1482.55 562.775 1480.77 Q564.696 1478.96 564.696 1475.86 Q564.696 1472.73 562.775 1470.95 Q560.876 1469.17 557.52 1469.17 M552.844 1467.18 Q549.835 1466.44 548.145 1464.38 Q546.478 1462.32 546.478 1459.35 Q546.478 1455.21 549.418 1452.8 Q552.381 1450.39 557.52 1450.39 Q562.682 1450.39 565.622 1452.8 Q568.562 1455.21 568.562 1459.35 Q568.562 1462.32 566.872 1464.38 Q565.205 1466.44 562.219 1467.18 Q565.599 1467.96 567.474 1470.26 Q569.372 1472.55 569.372 1475.86 Q569.372 1480.88 566.293 1483.57 Q563.238 1486.25 557.52 1486.25 Q551.802 1486.25 548.724 1483.57 Q545.668 1480.88 545.668 1475.86 Q545.668 1472.55 547.566 1470.26 Q549.464 1467.96 552.844 1467.18 M551.131 1459.79 Q551.131 1462.48 552.798 1463.98 Q554.488 1465.49 557.52 1465.49 Q560.529 1465.49 562.219 1463.98 Q563.932 1462.48 563.932 1459.79 Q563.932 1457.11 562.219 1455.6 Q560.529 1454.1 557.52 1454.1 Q554.488 1454.1 552.798 1455.6 Q551.131 1457.11 551.131 1459.79 Z" fill="#000000" fill-rule="nonzero" fill-opacity="1" /><path clip-path="url(#clip370)" d="M661.97 1484.86 L661.97 1480.6 Q663.729 1481.44 665.535 1481.88 Q667.34 1482.32 669.076 1482.32 Q673.706 1482.32 676.137 1479.21 Q678.59 1476.09 678.938 1469.75 Q677.595 1471.74 675.535 1472.8 Q673.475 1473.87 670.975 1473.87 Q665.789 1473.87 662.757 1470.74 Q659.748 1467.59 659.748 1462.15 Q659.748 1456.83 662.896 1453.61 Q666.044 1450.39 671.276 1450.39 Q677.271 1450.39 680.419 1455 Q683.59 1459.58 683.59 1468.33 Q683.59 1476.51 679.701 1481.39 Q675.836 1486.25 669.285 1486.25 Q667.526 1486.25 665.72 1485.9 Q663.914 1485.56 661.97 1484.86 M671.276 1470.21 Q674.424 1470.21 676.252 1468.06 Q678.104 1465.9 678.104 1462.15 Q678.104 1458.43 676.252 1456.27 Q674.424 1454.1 671.276 1454.1 Q668.127 1454.1 666.276 1456.27 Q664.447 1458.43 664.447 1462.15 Q664.447 1465.9 666.276 1468.06 Q668.127 1470.21 671.276 1470.21 Z" fill="#000000" fill-rule="nonzero" fill-opacity="1" /><path clip-path="url(#clip370)" d="M748.467 1481.64 L756.105 1481.64 L756.105 1455.28 L747.795 1456.95 L747.795 1452.69 L756.059 1451.02 L760.735 1451.02 L760.735 1481.64 L768.374 1481.64 L768.374 1485.58 L748.467 1485.58 L748.467 1481.64 Z" fill="#000000" fill-rule="nonzero" fill-opacity="1" /><path clip-path="url(#clip370)" d="M787.818 1454.1 Q784.207 1454.1 782.378 1457.66 Q780.573 1461.2 780.573 1468.33 Q780.573 1475.44 782.378 1479.01 Q784.207 1482.55 787.818 1482.55 Q791.452 1482.55 793.258 1479.01 Q795.087 1475.44 795.087 1468.33 Q795.087 1461.2 793.258 1457.66 Q791.452 1454.1 787.818 1454.1 M787.818 1450.39 Q793.628 1450.39 796.684 1455 Q799.763 1459.58 799.763 1468.33 Q799.763 1477.06 796.684 1481.67 Q793.628 1486.25 787.818 1486.25 Q782.008 1486.25 778.929 1481.67 Q775.874 1477.06 775.874 1468.33 Q775.874 1459.58 778.929 1455 Q782.008 1450.39 787.818 1450.39 Z" fill="#000000" fill-rule="nonzero" fill-opacity="1" /><path clip-path="url(#clip370)" d="M1424.31 1481.64 L1440.63 1481.64 L1440.63 1485.58 L1418.69 1485.58 L1418.69 1481.64 Q1421.35 1478.89 1425.93 1474.26 Q1430.54 1469.61 1431.72 1468.27 Q1433.97 1465.74 1434.85 1464.01 Q1435.75 1462.25 1435.75 1460.56 Q1435.75 1457.8 1433.8 1456.07 Q1431.88 1454.33 1428.78 1454.33 Q1426.58 1454.33 1424.13 1455.09 Q1421.7 1455.86 1418.92 1457.41 L1418.92 1452.69 Q1421.74 1451.55 1424.2 1450.97 Q1426.65 1450.39 1428.69 1450.39 Q1434.06 1450.39 1437.25 1453.08 Q1440.45 1455.77 1440.45 1460.26 Q1440.45 1462.39 1439.64 1464.31 Q1438.85 1466.2 1436.74 1468.8 Q1436.17 1469.47 1433.06 1472.69 Q1429.96 1475.88 1424.31 1481.64 Z" fill="#000000" fill-rule="nonzero" fill-opacity="1" /><path clip-path="url(#clip370)" d="M1460.45 1454.1 Q1456.84 1454.1 1455.01 1457.66 Q1453.2 1461.2 1453.2 1468.33 Q1453.2 1475.44 1455.01 1479.01 Q1456.84 1482.55 1460.45 1482.55 Q1464.08 1482.55 1465.89 1479.01 Q1467.72 1475.44 1467.72 1468.33 Q1467.72 1461.2 1465.89 1457.66 Q1464.08 1454.1 1460.45 1454.1 M1460.45 1450.39 Q1466.26 1450.39 1469.31 1455 Q1472.39 1459.58 1472.39 1468.33 Q1472.39 1477.06 1469.31 1481.67 Q1466.26 1486.25 1460.45 1486.25 Q1454.64 1486.25 1451.56 1481.67 Q1448.5 1477.06 1448.5 1468.33 Q1448.5 1459.58 1451.56 1455 Q1454.64 1450.39 1460.45 1450.39 Z" fill="#000000" fill-rule="nonzero" fill-opacity="1" /><path clip-path="url(#clip370)" d="M1827.34 1466.95 Q1830.69 1467.66 1832.57 1469.93 Q1834.47 1472.2 1834.47 1475.53 Q1834.47 1480.65 1830.95 1483.45 Q1827.43 1486.25 1820.95 1486.25 Q1818.77 1486.25 1816.46 1485.81 Q1814.17 1485.39 1811.71 1484.54 L1811.71 1480.02 Q1813.66 1481.16 1815.97 1481.74 Q1818.29 1482.32 1820.81 1482.32 Q1825.21 1482.32 1827.5 1480.58 Q1829.82 1478.84 1829.82 1475.53 Q1829.82 1472.48 1827.66 1470.77 Q1825.53 1469.03 1821.71 1469.03 L1817.69 1469.03 L1817.69 1465.19 L1821.9 1465.19 Q1825.35 1465.19 1827.18 1463.82 Q1829.01 1462.43 1829.01 1459.84 Q1829.01 1457.18 1827.11 1455.77 Q1825.23 1454.33 1821.71 1454.33 Q1819.79 1454.33 1817.59 1454.75 Q1815.39 1455.16 1812.76 1456.04 L1812.76 1451.88 Q1815.42 1451.14 1817.73 1450.77 Q1820.07 1450.39 1822.13 1450.39 Q1827.45 1450.39 1830.56 1452.83 Q1833.66 1455.23 1833.66 1459.35 Q1833.66 1462.22 1832.01 1464.21 Q1830.37 1466.18 1827.34 1466.95 Z" fill="#000000" fill-rule="nonzero" fill-opacity="1" /><path clip-path="url(#clip370)" d="M1853.33 1454.1 Q1849.72 1454.1 1847.89 1457.66 Q1846.09 1461.2 1846.09 1468.33 Q1846.09 1475.44 1847.89 1479.01 Q1849.72 1482.55 1853.33 1482.55 Q1856.97 1482.55 1858.77 1479.01 Q1860.6 1475.44 1860.6 1468.33 Q1860.6 1461.2 1858.77 1457.66 Q1856.97 1454.1 1853.33 1454.1 M1853.33 1450.39 Q1859.14 1450.39 1862.2 1455 Q1865.28 1459.58 1865.28 1468.33 Q1865.28 1477.06 1862.2 1481.67 Q1859.14 1486.25 1853.33 1486.25 Q1847.52 1486.25 1844.44 1481.67 Q1841.39 1477.06 1841.39 1468.33 Q1841.39 1459.58 1844.44 1455 Q1847.52 1450.39 1853.33 1450.39 Z" fill="#000000" fill-rule="nonzero" fill-opacity="1" /><path clip-path="url(#clip370)" d="M2105.47 1455.09 L2093.67 1473.54 L2105.47 1473.54 L2105.47 1455.09 M2104.25 1451.02 L2110.13 1451.02 L2110.13 1473.54 L2115.06 1473.54 L2115.06 1477.43 L2110.13 1477.43 L2110.13 1485.58 L2105.47 1485.58 L2105.47 1477.43 L2089.87 1477.43 L2089.87 1472.92 L2104.25 1451.02 Z" fill="#000000" fill-rule="nonzero" fill-opacity="1" /><path clip-path="url(#clip370)" d="M2132.79 1454.1 Q2129.18 1454.1 2127.35 1457.66 Q2125.54 1461.2 2125.54 1468.33 Q2125.54 1475.44 2127.35 1479.01 Q2129.18 1482.55 2132.79 1482.55 Q2136.42 1482.55 2138.23 1479.01 Q2140.06 1475.44 2140.06 1468.33 Q2140.06 1461.2 2138.23 1457.66 Q2136.42 1454.1 2132.79 1454.1 M2132.79 1450.39 Q2138.6 1450.39 2141.65 1455 Q2144.73 1459.58 2144.73 1468.33 Q2144.73 1477.06 2141.65 1481.67 Q2138.6 1486.25 2132.79 1486.25 Q2126.98 1486.25 2123.9 1481.67 Q2120.84 1477.06 2120.84 1468.33 Q2120.84 1459.58 2123.9 1455 Q2126.98 1450.39 2132.79 1450.39 Z" fill="#000000" fill-rule="nonzero" fill-opacity="1" /><path clip-path="url(#clip370)" d="M2308.26 1451.02 L2326.62 1451.02 L2326.62 1454.96 L2312.54 1454.96 L2312.54 1463.43 Q2313.56 1463.08 2314.58 1462.92 Q2315.6 1462.73 2316.62 1462.73 Q2322.4 1462.73 2325.78 1465.9 Q2329.16 1469.08 2329.16 1474.49 Q2329.16 1480.07 2325.69 1483.17 Q2322.22 1486.25 2315.9 1486.25 Q2313.72 1486.25 2311.45 1485.88 Q2309.21 1485.51 2306.8 1484.77 L2306.8 1480.07 Q2308.89 1481.2 2311.11 1481.76 Q2313.33 1482.32 2315.81 1482.32 Q2319.81 1482.32 2322.15 1480.21 Q2324.49 1478.1 2324.49 1474.49 Q2324.49 1470.88 2322.15 1468.77 Q2319.81 1466.67 2315.81 1466.67 Q2313.93 1466.67 2312.06 1467.08 Q2310.2 1467.5 2308.26 1468.38 L2308.26 1451.02 Z" fill="#000000" fill-rule="nonzero" fill-opacity="1" /><path clip-path="url(#clip370)" d="M2348.38 1454.1 Q2344.76 1454.1 2342.94 1457.66 Q2341.13 1461.2 2341.13 1468.33 Q2341.13 1475.44 2342.94 1479.01 Q2344.76 1482.55 2348.38 1482.55 Q2352.01 1482.55 2353.82 1479.01 Q2355.64 1475.44 2355.64 1468.33 Q2355.64 1461.2 2353.82 1457.66 Q2352.01 1454.1 2348.38 1454.1 M2348.38 1450.39 Q2354.19 1450.39 2357.24 1455 Q2360.32 1459.58 2360.32 1468.33 Q2360.32 1477.06 2357.24 1481.67 Q2354.19 1486.25 2348.38 1486.25 Q2342.57 1486.25 2339.49 1481.67 Q2336.43 1477.06 2336.43 1468.33 Q2336.43 1459.58 2339.49 1455 Q2342.57 1450.39 2348.38 1450.39 Z" fill="#000000" fill-rule="nonzero" fill-opacity="1" /><path clip-path="url(#clip370)" d="M1282.03 1517.99 Q1282.03 1519.7 1280.91 1520.79 Q1279.81 1521.89 1278.39 1521.89 Q1277.17 1521.89 1276.53 1521.18 Q1275.88 1520.47 1275.88 1519.57 Q1275.88 1518.28 1276.88 1517.22 Q1277.88 1516.15 1279.33 1515.93 Q1278.26 1515.15 1276.56 1515.15 Q1273.76 1515.15 1271.28 1517.31 Q1270.18 1518.31 1268.99 1520.15 Q1267.8 1521.95 1267.57 1522.72 L1265.48 1531.32 Q1265.29 1532.29 1264.09 1536.93 Q1262.93 1541.53 1262.84 1541.72 Q1262.52 1542.63 1261.81 1543.11 Q1261.1 1543.59 1260.39 1543.59 Q1259.59 1543.59 1259.04 1543.11 Q1258.49 1542.63 1258.49 1541.79 Q1258.49 1541.66 1258.59 1541.18 Q1258.68 1540.69 1258.84 1540.02 Q1259.01 1539.34 1259.07 1538.95 L1262.9 1523.72 Q1263.61 1520.95 1263.77 1520.08 Q1263.97 1519.18 1263.97 1518.18 Q1263.97 1516.44 1263.42 1515.8 Q1262.87 1515.15 1261.9 1515.15 Q1260.23 1515.15 1259.13 1517.15 Q1258.04 1519.15 1257.11 1523.01 Q1256.82 1524.08 1256.62 1524.3 Q1256.46 1524.53 1255.98 1524.53 Q1255.17 1524.49 1255.17 1523.85 Q1255.17 1523.69 1255.43 1522.66 Q1255.69 1521.6 1256.17 1520.05 Q1256.69 1518.47 1257.23 1517.47 Q1257.56 1516.8 1257.85 1516.35 Q1258.14 1515.9 1258.72 1515.19 Q1259.3 1514.48 1260.17 1514.09 Q1261.03 1513.71 1262.1 1513.71 Q1264.42 1513.71 1266.06 1515.12 Q1267.73 1516.54 1268.12 1518.76 Q1268.93 1517.6 1269.92 1516.6 Q1270.92 1515.57 1272.76 1514.64 Q1274.59 1513.71 1276.56 1513.71 Q1279.01 1513.71 1280.52 1514.96 Q1282.03 1516.19 1282.03 1517.99 Z" fill="#000000" fill-rule="nonzero" fill-opacity="1" /><path clip-path="url(#clip370)" d="M1310 1537.48 Q1310 1537.5 1309.86 1538.31 L1304.72 1558.8 Q1304.45 1559.88 1303.69 1560.97 Q1302.94 1562.07 1301.75 1563.02 Q1300.57 1563.99 1298.77 1564.57 Q1296.99 1565.18 1294.94 1565.18 Q1291.67 1565.18 1290.23 1564.48 Q1288.81 1563.81 1288.81 1562.36 Q1288.81 1561.1 1289.6 1560.38 Q1290.39 1559.68 1291.29 1559.68 Q1292.14 1559.68 1292.59 1560.18 Q1293.05 1560.67 1293.05 1561.3 Q1293.05 1562 1292.57 1562.7 Q1292.1 1563.42 1291.15 1563.69 Q1292.66 1564.17 1294.85 1564.17 Q1299.47 1564.17 1301.45 1559.28 Q1301.5 1559.21 1301.5 1559.19 L1303.03 1553.08 L1302.96 1553.03 Q1302.58 1553.48 1301.97 1554 Q1301.39 1554.5 1300.12 1555.1 Q1298.86 1555.71 1297.62 1555.71 Q1295.03 1555.71 1293.25 1553.73 Q1291.49 1551.72 1291.49 1548.41 Q1291.49 1546 1292.46 1543.58 Q1293.45 1541.15 1294.98 1539.37 Q1296.54 1537.57 1298.52 1536.44 Q1300.53 1535.31 1302.47 1535.31 Q1303.82 1535.31 1304.97 1536.12 Q1306.12 1536.91 1306.75 1538.22 Q1306.86 1537.14 1307.47 1536.69 Q1308.1 1536.24 1308.65 1536.24 Q1309.25 1536.24 1309.62 1536.57 Q1310 1536.89 1310 1537.48 M1306.21 1540.29 Q1306.21 1540.16 1306.12 1539.8 Q1306.03 1539.41 1305.76 1538.81 Q1305.51 1538.2 1305.13 1537.66 Q1304.75 1537.11 1304.05 1536.73 Q1303.37 1536.33 1302.51 1536.33 Q1301.12 1536.33 1299.72 1537.5 Q1298.32 1538.65 1297.35 1540.43 Q1296.45 1542.14 1295.59 1545.46 Q1294.76 1548.77 1294.76 1550.46 Q1294.76 1552.13 1295.48 1553.41 Q1296.2 1554.7 1297.76 1554.7 Q1299.56 1554.7 1301.5 1553.03 Q1303.51 1551.29 1303.84 1549.81 L1306.08 1540.99 Q1306.21 1540.45 1306.21 1540.29 Z" fill="#000000" fill-rule="nonzero" fill-opacity="1" /><polyline clip-path="url(#clip372)" style="stroke:#000000; stroke-linecap:round; stroke-linejoin:round; stroke-width:2; stroke-opacity:0.1; fill:none" points="220.057,878.189 2352.76,878.189 "/>
<polyline clip-path="url(#clip372)" style="stroke:#000000; stroke-linecap:round; stroke-linejoin:round; stroke-width:2; stroke-opacity:0.1; fill:none" points="220.057,332.753 2352.76,332.753 "/>
<polyline clip-path="url(#clip372)" style="stroke:#000000; stroke-linecap:round; stroke-linejoin:round; stroke-width:2; stroke-opacity:0.05; fill:none" points="220.057,1259.43 2352.76,1259.43 "/>
<polyline clip-path="url(#clip372)" style="stroke:#000000; stroke-linecap:round; stroke-linejoin:round; stroke-width:2; stroke-opacity:0.05; fill:none" points="220.057,1163.39 2352.76,1163.39 "/>
<polyline clip-path="url(#clip372)" style="stroke:#000000; stroke-linecap:round; stroke-linejoin:round; stroke-width:2; stroke-opacity:0.05; fill:none" points="220.057,1095.24 2352.76,1095.24 "/>
<polyline clip-path="url(#clip372)" style="stroke:#000000; stroke-linecap:round; stroke-linejoin:round; stroke-width:2; stroke-opacity:0.05; fill:none" points="220.057,1042.38 2352.76,1042.38 "/>
<polyline clip-path="url(#clip372)" style="stroke:#000000; stroke-linecap:round; stroke-linejoin:round; stroke-width:2; stroke-opacity:0.05; fill:none" points="220.057,999.194 2352.76,999.194 "/>
<polyline clip-path="url(#clip372)" style="stroke:#000000; stroke-linecap:round; stroke-linejoin:round; stroke-width:2; stroke-opacity:0.05; fill:none" points="220.057,962.678 2352.76,962.678 "/>
<polyline clip-path="url(#clip372)" style="stroke:#000000; stroke-linecap:round; stroke-linejoin:round; stroke-width:2; stroke-opacity:0.05; fill:none" points="220.057,931.048 2352.76,931.048 "/>
<polyline clip-path="url(#clip372)" style="stroke:#000000; stroke-linecap:round; stroke-linejoin:round; stroke-width:2; stroke-opacity:0.05; fill:none" points="220.057,903.147 2352.76,903.147 "/>
<polyline clip-path="url(#clip372)" style="stroke:#000000; stroke-linecap:round; stroke-linejoin:round; stroke-width:2; stroke-opacity:0.05; fill:none" points="220.057,713.996 2352.76,713.996 "/>
<polyline clip-path="url(#clip372)" style="stroke:#000000; stroke-linecap:round; stroke-linejoin:round; stroke-width:2; stroke-opacity:0.05; fill:none" points="220.057,617.95 2352.76,617.95 "/>
<polyline clip-path="url(#clip372)" style="stroke:#000000; stroke-linecap:round; stroke-linejoin:round; stroke-width:2; stroke-opacity:0.05; fill:none" points="220.057,549.804 2352.76,549.804 "/>
<polyline clip-path="url(#clip372)" style="stroke:#000000; stroke-linecap:round; stroke-linejoin:round; stroke-width:2; stroke-opacity:0.05; fill:none" points="220.057,496.945 2352.76,496.945 "/>
<polyline clip-path="url(#clip372)" style="stroke:#000000; stroke-linecap:round; stroke-linejoin:round; stroke-width:2; stroke-opacity:0.05; fill:none" points="220.057,453.757 2352.76,453.757 "/>
<polyline clip-path="url(#clip372)" style="stroke:#000000; stroke-linecap:round; stroke-linejoin:round; stroke-width:2; stroke-opacity:0.05; fill:none" points="220.057,417.242 2352.76,417.242 "/>
<polyline clip-path="url(#clip372)" style="stroke:#000000; stroke-linecap:round; stroke-linejoin:round; stroke-width:2; stroke-opacity:0.05; fill:none" points="220.057,385.611 2352.76,385.611 "/>
<polyline clip-path="url(#clip372)" style="stroke:#000000; stroke-linecap:round; stroke-linejoin:round; stroke-width:2; stroke-opacity:0.05; fill:none" points="220.057,357.711 2352.76,357.711 "/>
<polyline clip-path="url(#clip372)" style="stroke:#000000; stroke-linecap:round; stroke-linejoin:round; stroke-width:2; stroke-opacity:0.05; fill:none" points="220.057,168.56 2352.76,168.56 "/>
<polyline clip-path="url(#clip372)" style="stroke:#000000; stroke-linecap:round; stroke-linejoin:round; stroke-width:2; stroke-opacity:0.05; fill:none" points="220.057,72.5134 2352.76,72.5134 "/>
<polyline clip-path="url(#clip370)" style="stroke:#000000; stroke-linecap:round; stroke-linejoin:round; stroke-width:4; stroke-opacity:1; fill:none" points="220.057,1423.18 220.057,47.2441 "/>
<polyline clip-path="url(#clip370)" style="stroke:#000000; stroke-linecap:round; stroke-linejoin:round; stroke-width:4; stroke-opacity:1; fill:none" points="220.057,878.189 238.955,878.189 "/>
<polyline clip-path="url(#clip370)" style="stroke:#000000; stroke-linecap:round; stroke-linejoin:round; stroke-width:4; stroke-opacity:1; fill:none" points="220.057,332.753 238.955,332.753 "/>
<polyline clip-path="url(#clip370)" style="stroke:#000000; stroke-linecap:round; stroke-linejoin:round; stroke-width:4; stroke-opacity:1; fill:none" points="220.057,1259.43 229.506,1259.43 "/>
<polyline clip-path="url(#clip370)" style="stroke:#000000; stroke-linecap:round; stroke-linejoin:round; stroke-width:4; stroke-opacity:1; fill:none" points="220.057,1163.39 229.506,1163.39 "/>
<polyline clip-path="url(#clip370)" style="stroke:#000000; stroke-linecap:round; stroke-linejoin:round; stroke-width:4; stroke-opacity:1; fill:none" points="220.057,1095.24 229.506,1095.24 "/>
<polyline clip-path="url(#clip370)" style="stroke:#000000; stroke-linecap:round; stroke-linejoin:round; stroke-width:4; stroke-opacity:1; fill:none" points="220.057,1042.38 229.506,1042.38 "/>
<polyline clip-path="url(#clip370)" style="stroke:#000000; stroke-linecap:round; stroke-linejoin:round; stroke-width:4; stroke-opacity:1; fill:none" points="220.057,999.194 229.506,999.194 "/>
<polyline clip-path="url(#clip370)" style="stroke:#000000; stroke-linecap:round; stroke-linejoin:round; stroke-width:4; stroke-opacity:1; fill:none" points="220.057,962.678 229.506,962.678 "/>
<polyline clip-path="url(#clip370)" style="stroke:#000000; stroke-linecap:round; stroke-linejoin:round; stroke-width:4; stroke-opacity:1; fill:none" points="220.057,931.048 229.506,931.048 "/>
<polyline clip-path="url(#clip370)" style="stroke:#000000; stroke-linecap:round; stroke-linejoin:round; stroke-width:4; stroke-opacity:1; fill:none" points="220.057,903.147 229.506,903.147 "/>
<polyline clip-path="url(#clip370)" style="stroke:#000000; stroke-linecap:round; stroke-linejoin:round; stroke-width:4; stroke-opacity:1; fill:none" points="220.057,713.996 229.506,713.996 "/>
<polyline clip-path="url(#clip370)" style="stroke:#000000; stroke-linecap:round; stroke-linejoin:round; stroke-width:4; stroke-opacity:1; fill:none" points="220.057,617.95 229.506,617.95 "/>
<polyline clip-path="url(#clip370)" style="stroke:#000000; stroke-linecap:round; stroke-linejoin:round; stroke-width:4; stroke-opacity:1; fill:none" points="220.057,549.804 229.506,549.804 "/>
<polyline clip-path="url(#clip370)" style="stroke:#000000; stroke-linecap:round; stroke-linejoin:round; stroke-width:4; stroke-opacity:1; fill:none" points="220.057,496.945 229.506,496.945 "/>
<polyline clip-path="url(#clip370)" style="stroke:#000000; stroke-linecap:round; stroke-linejoin:round; stroke-width:4; stroke-opacity:1; fill:none" points="220.057,453.757 229.506,453.757 "/>
<polyline clip-path="url(#clip370)" style="stroke:#000000; stroke-linecap:round; stroke-linejoin:round; stroke-width:4; stroke-opacity:1; fill:none" points="220.057,417.242 229.506,417.242 "/>
<polyline clip-path="url(#clip370)" style="stroke:#000000; stroke-linecap:round; stroke-linejoin:round; stroke-width:4; stroke-opacity:1; fill:none" points="220.057,385.611 229.506,385.611 "/>
<polyline clip-path="url(#clip370)" style="stroke:#000000; stroke-linecap:round; stroke-linejoin:round; stroke-width:4; stroke-opacity:1; fill:none" points="220.057,357.711 229.506,357.711 "/>
<polyline clip-path="url(#clip370)" style="stroke:#000000; stroke-linecap:round; stroke-linejoin:round; stroke-width:4; stroke-opacity:1; fill:none" points="220.057,168.56 229.506,168.56 "/>
<polyline clip-path="url(#clip370)" style="stroke:#000000; stroke-linecap:round; stroke-linejoin:round; stroke-width:4; stroke-opacity:1; fill:none" points="220.057,72.5134 229.506,72.5134 "/>
<path clip-path="url(#clip370)" d="M116.041 897.982 L123.68 897.982 L123.68 871.616 L115.37 873.283 L115.37 869.024 L123.634 867.357 L128.31 867.357 L128.31 897.982 L135.948 897.982 L135.948 901.917 L116.041 901.917 L116.041 897.982 Z" fill="#000000" fill-rule="nonzero" fill-opacity="1" /><path clip-path="url(#clip370)" d="M155.393 870.436 Q151.782 870.436 149.953 874 Q148.147 877.542 148.147 884.672 Q148.147 891.778 149.953 895.343 Q151.782 898.884 155.393 898.884 Q159.027 898.884 160.833 895.343 Q162.661 891.778 162.661 884.672 Q162.661 877.542 160.833 874 Q159.027 870.436 155.393 870.436 M155.393 866.732 Q161.203 866.732 164.258 871.338 Q167.337 875.922 167.337 884.672 Q167.337 893.398 164.258 898.005 Q161.203 902.588 155.393 902.588 Q149.583 902.588 146.504 898.005 Q143.448 893.398 143.448 884.672 Q143.448 875.922 146.504 871.338 Q149.583 866.732 155.393 866.732 Z" fill="#000000" fill-rule="nonzero" fill-opacity="1" /><path clip-path="url(#clip370)" d="M167.883 871.309 L174.089 871.309 L174.089 849.887 L167.337 851.241 L167.337 847.781 L174.052 846.426 L177.851 846.426 L177.851 871.309 L184.057 871.309 L184.057 874.506 L167.883 874.506 L167.883 871.309 Z" fill="#000000" fill-rule="nonzero" fill-opacity="1" /><path clip-path="url(#clip370)" d="M114.931 352.545 L122.57 352.545 L122.57 326.18 L114.26 327.846 L114.26 323.587 L122.524 321.92 L127.2 321.92 L127.2 352.545 L134.839 352.545 L134.839 356.48 L114.931 356.48 L114.931 352.545 Z" fill="#000000" fill-rule="nonzero" fill-opacity="1" /><path clip-path="url(#clip370)" d="M154.283 324.999 Q150.672 324.999 148.843 328.564 Q147.038 332.105 147.038 339.235 Q147.038 346.341 148.843 349.906 Q150.672 353.448 154.283 353.448 Q157.917 353.448 159.723 349.906 Q161.552 346.341 161.552 339.235 Q161.552 332.105 159.723 328.564 Q157.917 324.999 154.283 324.999 M154.283 321.295 Q160.093 321.295 163.149 325.902 Q166.227 330.485 166.227 339.235 Q166.227 347.962 163.149 352.568 Q160.093 357.152 154.283 357.152 Q148.473 357.152 145.394 352.568 Q142.339 347.962 142.339 339.235 Q142.339 330.485 145.394 325.902 Q148.473 321.295 154.283 321.295 Z" fill="#000000" fill-rule="nonzero" fill-opacity="1" /><path clip-path="url(#clip370)" d="M170.798 325.873 L184.057 325.873 L184.057 329.07 L166.227 329.07 L166.227 325.873 Q168.39 323.634 172.114 319.873 Q175.857 316.093 176.816 315.002 Q178.641 312.952 179.355 311.541 Q180.089 310.112 180.089 308.739 Q180.089 306.501 178.509 305.09 Q176.948 303.679 174.428 303.679 Q172.641 303.679 170.647 304.3 Q168.672 304.921 166.416 306.181 L166.416 302.344 Q168.71 301.423 170.704 300.952 Q172.697 300.482 174.352 300.482 Q178.716 300.482 181.311 302.664 Q183.907 304.846 183.907 308.494 Q183.907 310.225 183.249 311.786 Q182.609 313.328 180.898 315.434 Q180.427 315.98 177.907 318.594 Q175.387 321.189 170.798 325.873 Z" fill="#000000" fill-rule="nonzero" fill-opacity="1" /><path clip-path="url(#clip370)" d="M44.7797 839.785 Q44.0158 843.349 41.947 845.259 Q39.91 847.169 36.9499 847.169 Q32.4621 847.169 29.9476 843.54 Q27.465 839.944 27.465 833.705 Q27.465 831.286 27.8469 828.581 Q28.2289 825.876 28.9928 822.756 L34.3081 822.756 Q33.3851 825.844 32.9713 828.39 Q32.5576 830.968 32.5576 833.228 Q32.5576 837.016 34.0217 839.212 Q35.4858 841.44 37.5228 841.44 Q39.7508 841.44 41.1831 839.275 Q42.5836 837.143 42.5836 833.451 L42.5836 828.517 L47.4215 828.517 L47.4215 833.228 Q47.4215 837.588 49.0447 839.88 Q50.8271 842.363 53.6281 842.363 Q56.4926 842.363 58.275 839.689 Q60.0574 836.984 60.0574 832.178 Q60.0574 829.218 59.4845 826.512 Q58.8798 823.807 57.7021 821.547 L63.1448 821.547 Q64.036 824.411 64.4816 827.085 Q64.9272 829.79 64.9272 832.337 Q64.9272 839.912 62.0308 844.018 Q59.1344 848.124 53.6281 848.124 Q50.1906 848.124 47.8671 845.928 Q45.5436 843.731 44.7797 839.785 Z" fill="#000000" fill-rule="nonzero" fill-opacity="1" /><path clip-path="url(#clip370)" d="M14.5426 776.191 Q21.8632 780.456 29.0246 782.525 Q36.186 784.594 43.5384 784.594 Q50.8908 784.594 58.1159 782.525 Q65.3091 780.424 72.5979 776.191 L72.5979 781.284 Q65.1182 786.058 57.8931 788.445 Q50.668 790.801 43.5384 790.801 Q36.4406 790.801 29.2474 788.445 Q22.0542 786.09 14.5426 781.284 L14.5426 776.191 Z" fill="#000000" fill-rule="nonzero" fill-opacity="1" /><path clip-path="url(#clip370)" d="M46.0847 748.628 Q46.0847 755.725 47.7079 758.463 Q49.3312 761.2 53.2461 761.2 Q56.3653 761.2 58.2114 759.163 Q60.0256 757.094 60.0256 753.561 Q60.0256 748.691 56.5881 745.763 Q53.1188 742.803 47.3897 742.803 L46.0847 742.803 L46.0847 748.628 M43.6657 736.947 L64.0042 736.947 L64.0042 742.803 L58.5933 742.803 Q61.8398 744.808 63.3994 747.8 Q64.9272 750.792 64.9272 755.121 Q64.9272 760.595 61.8716 763.842 Q58.7843 767.056 53.6281 767.056 Q47.6125 767.056 44.5569 763.046 Q41.5014 759.004 41.5014 751.015 L41.5014 742.803 L40.9285 742.803 Q36.8862 742.803 34.6901 745.477 Q32.4621 748.118 32.4621 752.925 Q32.4621 755.98 33.1941 758.876 Q33.9262 761.773 35.3903 764.446 L29.9795 764.446 Q28.7381 761.232 28.1334 758.208 Q27.4968 755.184 27.4968 752.32 Q27.4968 744.585 31.5072 740.766 Q35.5176 736.947 43.6657 736.947 Z" fill="#000000" fill-rule="nonzero" fill-opacity="1" /><path clip-path="url(#clip370)" d="M33.8307 704.227 Q33.2578 705.214 33.0032 706.391 Q32.7167 707.537 32.7167 708.938 Q32.7167 713.903 35.9632 716.576 Q39.1779 719.218 45.2253 719.218 L64.0042 719.218 L64.0042 725.106 L28.3562 725.106 L28.3562 719.218 L33.8944 719.218 Q30.6479 717.372 29.0883 714.412 Q27.4968 711.452 27.4968 707.219 Q27.4968 706.614 27.5923 705.882 Q27.656 705.15 27.8151 704.259 L33.8307 704.227 Z" fill="#000000" fill-rule="nonzero" fill-opacity="1" /><path clip-path="url(#clip370)" d="M46.212 672.494 Q39.7508 672.494 36.0905 675.167 Q32.3984 677.809 32.3984 682.456 Q32.3984 687.103 36.0905 689.777 Q39.7508 692.419 46.212 692.419 Q52.6732 692.419 56.3653 689.777 Q60.0256 687.103 60.0256 682.456 Q60.0256 677.809 56.3653 675.167 Q52.6732 672.494 46.212 672.494 M33.7671 692.419 Q30.5842 690.572 29.0564 687.772 Q27.4968 684.939 27.4968 681.024 Q27.4968 674.531 32.6531 670.489 Q37.8093 666.415 46.212 666.415 Q54.6147 666.415 59.771 670.489 Q64.9272 674.531 64.9272 681.024 Q64.9272 684.939 63.3994 687.772 Q61.8398 690.572 58.657 692.419 L64.0042 692.419 L64.0042 698.307 L14.479 698.307 L14.479 692.419 L33.7671 692.419 Z" fill="#000000" fill-rule="nonzero" fill-opacity="1" /><path clip-path="url(#clip370)" d="M55.9197 655.879 L55.9197 649.164 L64.0042 649.164 L64.0042 655.879 L55.9197 655.879 Z" fill="#000000" fill-rule="nonzero" fill-opacity="1" /><path clip-path="url(#clip370)" d="M14.5426 636.91 L14.5426 631.817 Q22.0542 627.043 29.2474 624.687 Q36.4406 622.3 43.5384 622.3 Q50.668 622.3 57.8931 624.687 Q65.1182 627.043 72.5979 631.817 L72.5979 636.91 Q65.3091 632.676 58.1159 630.607 Q50.8908 628.507 43.5384 628.507 Q36.186 628.507 29.0246 630.607 Q21.8632 632.676 14.5426 636.91 Z" fill="#000000" fill-rule="nonzero" fill-opacity="1" /><polyline clip-path="url(#clip372)" style="stroke:#009af9; stroke-linecap:round; stroke-linejoin:round; stroke-width:4; stroke-opacity:1; fill:none" points="280.417,109.283 301.155,113.38 321.894,118.297 342.633,123.286 363.372,115.383 384.111,133.815 404.85,119.149 425.588,113.119 446.327,112.282 467.066,117.687 487.805,114.322 508.544,112.802 529.283,121.611 550.021,121.103 570.76,130.281 591.499,126.527 612.238,128.687 632.977,131.768 653.716,120.136 674.454,124.448 695.193,133.509 715.932,123.139 736.671,122.508 757.41,127.167 778.149,134.276 798.887,133.958 819.626,125.315 840.365,130.073 861.104,136.107 881.843,138.947 902.582,133.091 923.32,130.895 944.059,135.35 964.798,135.068 985.537,134.101 1006.28,126.984 1027.01,129.62 1047.75,139.097 1068.49,137.123 1089.23,138.157 1109.97,143.342 1130.71,137.538 1151.45,140.478 1172.19,145.315 1192.93,144.511 1213.66,147.729 1234.4,147.8 1255.14,154.794 1275.88,155.13 1296.62,157.956 1317.36,164.894 1338.1,175.918 1358.84,183.574 1379.57,196.113 1400.31,210.988 1421.05,237.836 1441.79,323.616 1462.53,395.184 1483.27,455.79 1504.01,506.362 1524.75,538.768 1545.49,582.461 1566.22,631.493 1586.96,665.36 1607.7,690.598 1628.44,747.42 1649.18,761.349 1669.92,792.543 1690.66,819.223 1711.4,842.704 1732.13,881.18 1752.87,896.386 1773.61,924.422 1794.35,962.39 1815.09,975.427 1835.83,1007.85 1856.57,1012.63 1877.31,1044.01 1898.05,1045.72 1918.78,1078.88 1939.52,1107.45 1960.26,1123.61 1981,1145.51 2001.74,1154.93 2022.48,1168.28 2043.22,1185.69 2063.96,1224.18 2084.69,1242.44 2105.43,1245.93 2126.17,1253.58 2146.91,1281.12 2167.65,1318.51 2188.39,1309.7 2209.13,1325.91 2229.87,1349.03 2250.61,1364.52 2271.34,1368.23 2292.08,1384.24 "/>
<polyline clip-path="url(#clip372)" style="stroke:#e26f46; stroke-linecap:round; stroke-linejoin:round; stroke-width:4; stroke-opacity:1; fill:none" points="295.92,86.1857 316.503,100.988 337.085,104.025 357.667,107.835 378.249,108.053 398.832,109.23 419.414,104.244 439.996,95.4988 460.578,107.045 481.161,108.649 501.743,104.485 522.325,113.413 542.907,114.109 563.489,105.409 584.072,116.647 604.654,123.382 625.236,109.865 645.818,118.593 666.401,105.058 686.983,113.015 707.565,113.13 728.147,113.433 748.729,113.464 769.312,119.473 789.894,115.428 810.476,116.419 831.058,122.32 851.641,119.501 872.223,115.943 892.805,117.864 913.387,121.111 933.97,115.885 954.552,127.312 975.134,123.845 995.716,126.839 1016.3,126.348 1036.88,129.928 1057.46,129.845 1078.05,130.935 1098.63,131.778 1119.21,133.002 1139.79,131.395 1160.37,132.005 1180.96,134.964 1201.54,140.833 1222.12,138.56 1242.7,142.437 1263.29,138.331 1283.87,148.678 1304.45,154.732 1325.03,163.608 1345.61,167.918 1366.2,176.507 1386.78,186.91 1407.36,210.478 1427.94,254.523 1448.53,330.135 1469.11,365.521 1489.69,408.033 1510.27,444.313 1530.85,495.463 1551.44,502.962 1572.02,534.536 1592.6,567.299 1613.18,578.413 1633.77,612.442 1654.35,619.389 1674.93,642.769 1695.51,656.082 1716.09,679.023 1736.68,702.789 1757.26,713.057 1777.84,723.591 1798.42,759.987 1819.01,758.712 1839.59,789.967 1860.17,777.22 1880.75,826.588 1901.33,820.126 1921.92,819.814 1942.5,838.753 1963.08,840.985 1983.66,866.631 2004.25,892.098 2024.83,870.704 2045.41,908.576 2065.99,926.715 2086.57,929.711 2107.16,951.22 2127.74,951.388 2148.32,948.559 2168.9,980.424 2189.49,987.328 2210.07,990.549 2230.65,992.594 2251.23,1015.62 2271.81,1041.81 2292.4,1038.59 "/>
<path clip-path="url(#clip370)" d="M291.147 1377.32 L676.662 1377.32 L676.662 1221.8 L291.147 1221.8  Z" fill="#ffffff" fill-rule="evenodd" fill-opacity="1"/>
<polyline clip-path="url(#clip370)" style="stroke:#000000; stroke-linecap:round; stroke-linejoin:round; stroke-width:4; stroke-opacity:1; fill:none" points="291.147,1377.32 676.662,1377.32 676.662,1221.8 291.147,1221.8 291.147,1377.32 "/>
<polyline clip-path="url(#clip370)" style="stroke:#009af9; stroke-linecap:round; stroke-linejoin:round; stroke-width:4; stroke-opacity:1; fill:none" points="314.844,1273.64 457.024,1273.64 "/>
<path clip-path="url(#clip370)" d="M502.433 1275.27 L502.433 1290.92 L498.174 1290.92 L498.174 1275.41 Q498.174 1271.73 496.739 1269.9 Q495.304 1268.07 492.433 1268.07 Q488.984 1268.07 486.994 1270.27 Q485.003 1272.47 485.003 1276.26 L485.003 1290.92 L480.72 1290.92 L480.72 1264.99 L485.003 1264.99 L485.003 1269.02 Q486.531 1266.68 488.591 1265.52 Q490.674 1264.36 493.382 1264.36 Q497.85 1264.36 500.142 1267.14 Q502.433 1269.9 502.433 1275.27 Z" fill="#000000" fill-rule="nonzero" fill-opacity="1" /><path clip-path="url(#clip370)" d="M520.975 1267.98 Q517.549 1267.98 515.558 1270.66 Q513.567 1273.32 513.567 1277.98 Q513.567 1282.63 515.535 1285.31 Q517.526 1287.98 520.975 1287.98 Q524.378 1287.98 526.368 1285.29 Q528.359 1282.61 528.359 1277.98 Q528.359 1273.37 526.368 1270.68 Q524.378 1267.98 520.975 1267.98 M520.975 1264.36 Q526.53 1264.36 529.702 1267.98 Q532.873 1271.59 532.873 1277.98 Q532.873 1284.34 529.702 1287.98 Q526.53 1291.59 520.975 1291.59 Q515.396 1291.59 512.225 1287.98 Q509.077 1284.34 509.077 1277.98 Q509.077 1271.59 512.225 1267.98 Q515.396 1264.36 520.975 1264.36 Z" fill="#000000" fill-rule="nonzero" fill-opacity="1" /><path clip-path="url(#clip370)" d="M571.576 1274.71 Q573.081 1275.22 574.493 1276.89 Q575.928 1278.55 577.363 1281.47 L582.109 1290.92 L577.086 1290.92 L572.664 1282.05 Q570.951 1278.58 569.331 1277.44 Q567.734 1276.31 564.956 1276.31 L559.864 1276.31 L559.864 1290.92 L555.188 1290.92 L555.188 1256.36 L565.743 1256.36 Q571.669 1256.36 574.586 1258.83 Q577.502 1261.31 577.502 1266.31 Q577.502 1269.57 575.975 1271.73 Q574.47 1273.88 571.576 1274.71 M559.864 1260.2 L559.864 1272.47 L565.743 1272.47 Q569.123 1272.47 570.836 1270.92 Q572.572 1269.34 572.572 1266.31 Q572.572 1263.28 570.836 1261.75 Q569.123 1260.2 565.743 1260.2 L559.864 1260.2 Z" fill="#000000" fill-rule="nonzero" fill-opacity="1" /><path clip-path="url(#clip370)" d="M579.887 1256.36 L609.122 1256.36 L609.122 1260.29 L596.854 1260.29 L596.854 1290.92 L592.155 1290.92 L592.155 1260.29 L579.887 1260.29 L579.887 1256.36 Z" fill="#000000" fill-rule="nonzero" fill-opacity="1" /><polyline clip-path="url(#clip370)" style="stroke:#e26f46; stroke-linecap:round; stroke-linejoin:round; stroke-width:4; stroke-opacity:1; fill:none" points="314.844,1325.48 457.024,1325.48 "/>
<path clip-path="url(#clip370)" d="M480.72 1316.83 L484.98 1316.83 L490.304 1337.06 L495.605 1316.83 L500.628 1316.83 L505.952 1337.06 L511.253 1316.83 L515.512 1316.83 L508.73 1342.76 L503.706 1342.76 L498.128 1321.51 L492.526 1342.76 L487.503 1342.76 L480.72 1316.83 Z" fill="#000000" fill-rule="nonzero" fill-opacity="1" /><path clip-path="url(#clip370)" d="M521.97 1316.83 L526.229 1316.83 L526.229 1342.76 L521.97 1342.76 L521.97 1316.83 M521.97 1306.74 L526.229 1306.74 L526.229 1312.13 L521.97 1312.13 L521.97 1306.74 Z" fill="#000000" fill-rule="nonzero" fill-opacity="1" /><path clip-path="url(#clip370)" d="M539.354 1309.47 L539.354 1316.83 L548.127 1316.83 L548.127 1320.14 L539.354 1320.14 L539.354 1334.21 Q539.354 1337.38 540.211 1338.29 Q541.09 1339.19 543.752 1339.19 L548.127 1339.19 L548.127 1342.76 L543.752 1342.76 Q538.822 1342.76 536.947 1340.93 Q535.072 1339.07 535.072 1334.21 L535.072 1320.14 L531.947 1320.14 L531.947 1316.83 L535.072 1316.83 L535.072 1309.47 L539.354 1309.47 Z" fill="#000000" fill-rule="nonzero" fill-opacity="1" /><path clip-path="url(#clip370)" d="M575.28 1327.11 L575.28 1342.76 L571.021 1342.76 L571.021 1327.25 Q571.021 1323.57 569.586 1321.74 Q568.15 1319.91 565.28 1319.91 Q561.831 1319.91 559.84 1322.11 Q557.85 1324.31 557.85 1328.1 L557.85 1342.76 L553.567 1342.76 L553.567 1306.74 L557.85 1306.74 L557.85 1320.86 Q559.377 1318.52 561.438 1317.36 Q563.521 1316.2 566.229 1316.2 Q570.697 1316.2 572.988 1318.98 Q575.28 1321.74 575.28 1327.11 Z" fill="#000000" fill-rule="nonzero" fill-opacity="1" /><path clip-path="url(#clip370)" d="M615.419 1326.55 Q616.923 1327.06 618.335 1328.73 Q619.771 1330.39 621.206 1333.31 L625.951 1342.76 L620.928 1342.76 L616.507 1333.89 Q614.794 1330.42 613.173 1329.28 Q611.576 1328.15 608.798 1328.15 L603.706 1328.15 L603.706 1342.76 L599.03 1342.76 L599.03 1308.2 L609.585 1308.2 Q615.511 1308.2 618.428 1310.67 Q621.345 1313.15 621.345 1318.15 Q621.345 1321.41 619.817 1323.57 Q618.312 1325.72 615.419 1326.55 M603.706 1312.04 L603.706 1324.31 L609.585 1324.31 Q612.965 1324.31 614.678 1322.76 Q616.414 1321.18 616.414 1318.15 Q616.414 1315.12 614.678 1313.59 Q612.965 1312.04 609.585 1312.04 L603.706 1312.04 Z" fill="#000000" fill-rule="nonzero" fill-opacity="1" /><path clip-path="url(#clip370)" d="M623.729 1308.2 L652.965 1308.2 L652.965 1312.13 L640.696 1312.13 L640.696 1342.76 L635.997 1342.76 L635.997 1312.13 L623.729 1312.13 L623.729 1308.2 Z" fill="#000000" fill-rule="nonzero" fill-opacity="1" /></svg>
